<?xml version="1.0" encoding="UTF-8"?>
<svg id="Camada_2" data-name="Camada 2" xmlns="http://www.w3.org/2000/svg" xmlns:xlink="http://www.w3.org/1999/xlink" viewBox="0 0 568.45 362.04">
  <defs>
    <style>
      .cls-1 {
        fill: url(#linear-gradient-2);
      }

      .cls-2 {
        fill: #f9be93;
        opacity: .55;
      }

      .cls-3 {
        fill: url(#linear-gradient-6);
      }

      .cls-4 {
        fill: #328164;
      }

      .cls-5 {
        fill: url(#linear-gradient-11);
      }

      .cls-6 {
        fill: #974515;
        opacity: .49;
      }

      .cls-7 {
        fill: url(#linear-gradient-10);
      }

      .cls-8 {
        fill: url(#linear-gradient-5);
      }

      .cls-9 {
        fill: url(#linear-gradient-7);
      }

      .cls-10 {
        fill: url(#linear-gradient-9);
      }

      .cls-11 {
        fill: url(#linear-gradient-3);
      }

      .cls-12 {
        fill: url(#linear-gradient-4);
        opacity: .5;
      }

      .cls-13 {
        fill: url(#linear-gradient);
      }

      .cls-14 {
        fill: url(#linear-gradient-8);
      }

      .cls-15 {
        fill: #542911;
      }

      .cls-16 {
        fill: url(#linear-gradient-12);
      }

      .cls-17 {
        fill: url(#linear-gradient-13);
      }
    </style>
    <linearGradient id="linear-gradient" x1="-1717.99" y1="1972.37" x2="-1439.21" y2="1943.8" gradientTransform="translate(-1494.66 1974.9) rotate(80.29) scale(1 -1)" gradientUnits="userSpaceOnUse">
      <stop offset="0" stop-color="#97c449"/>
      <stop offset=".27" stop-color="#73ac52"/>
      <stop offset=".58" stop-color="#4f945c"/>
      <stop offset=".83" stop-color="#398661"/>
      <stop offset="1" stop-color="#328164"/>
    </linearGradient>
    <linearGradient id="linear-gradient-2" x1="47.44" y1="-133.81" x2="374.99" y2="-296.33" gradientTransform="translate(-15.84 455.38) rotate(14.09)" xlink:href="#linear-gradient"/>
    <linearGradient id="linear-gradient-3" x1="188.48" y1="-38.7" x2="454.16" y2="456.35" gradientUnits="userSpaceOnUse">
      <stop offset="0" stop-color="#f6a45c"/>
      <stop offset=".22" stop-color="#c68046"/>
      <stop offset=".47" stop-color="#955a2f"/>
      <stop offset=".7" stop-color="#713f1e"/>
      <stop offset=".88" stop-color="#5b2f14"/>
      <stop offset="1" stop-color="#542911"/>
    </linearGradient>
    <linearGradient id="linear-gradient-4" x1="298.82" y1="198.71" x2="343.17" y2="495.6" gradientUnits="userSpaceOnUse">
      <stop offset="0" stop-color="#f6a45c"/>
      <stop offset=".38" stop-color="#cc7a3d"/>
      <stop offset=".79" stop-color="#a55320"/>
      <stop offset="1" stop-color="#974515"/>
    </linearGradient>
    <linearGradient id="linear-gradient-5" x1="257.4" y1="-21.84" x2="318.91" y2="308.16" xlink:href="#linear-gradient-4"/>
    <linearGradient id="linear-gradient-6" x1="461.44" y1="205.83" x2="462.6" y2="227.15" gradientUnits="userSpaceOnUse">
      <stop offset=".38" stop-color="#974515"/>
      <stop offset=".4" stop-color="#9b4917"/>
      <stop offset=".5" stop-color="#b86528"/>
    </linearGradient>
    <linearGradient id="linear-gradient-7" x1="139.54" y1="221.99" x2="138.19" y2="262.29" xlink:href="#linear-gradient-6"/>
    <linearGradient id="linear-gradient-8" x1="339.88" y1="252.08" x2="340.27" y2="265.49" xlink:href="#linear-gradient-6"/>
    <linearGradient id="linear-gradient-9" x1="62.43" y1="121.71" x2="60.8" y2="142.41" xlink:href="#linear-gradient-6"/>
    <linearGradient id="linear-gradient-10" x1="181.19" y1="54.46" x2="182.18" y2="65.5" xlink:href="#linear-gradient-6"/>
    <linearGradient id="linear-gradient-11" x1="532.56" y1="120" x2="529.08" y2="143.64" xlink:href="#linear-gradient-6"/>
    <linearGradient id="linear-gradient-12" x1="290.04" y1="103.94" x2="310.44" y2="278.34" xlink:href="#linear-gradient-3"/>
    <linearGradient id="linear-gradient-13" x1="296.7" y1="70.15" x2="296.7" y2="264.44" xlink:href="#linear-gradient-4"/>
  </defs>
  <g id="Camada_1-2" data-name="Camada 1">
    <g>
      <g>
        <path class="cls-13" d="m49.41,187.82c.1.06.21.12.31.17.92.44,1.99.48,2.94.1l272.65-108.94c.85-.34,1.54-.98,1.94-1.81.16-.32,3.87-8.03,6.71-16.45,4.46-13.22,4.25-20.76-.65-23.73-.13-.08-.25-.15-.39-.22-.89-.46-1.93-.54-2.88-.22-.95.33-1.73,1.03-2.14,1.94-2.93,6.4-9.14,12.72-14.61,17.44,3.57-7.31,9.68-17.41,19.78-28.36,1.14-1.24,1.29-3.09.37-4.5-.31-.47-.71-.84-1.16-1.12-.92-.55-2.06-.69-3.12-.32-11.1,3.92-18.72,11.83-26.08,19.47-2.72,2.82-5.48,5.69-8.46,8.42,2.02-9.35.53-18.52.43-19.13-.18-1.08-.83-1.98-1.72-2.52-.45-.27-.96-.45-1.51-.51-1.63-.17-3.18.76-3.79,2.29-.02.05-1.4,3.26-5.7,8.29,2.23-5.08,3.46-8.94,3.59-9.33.51-1.62-.16-3.37-1.6-4.23-.08-.05-.16-.09-.25-.14-1.6-.81-3.56-.34-4.61,1.11-7.1,9.75-18.6,15.16-25.54,17.7,1.92-11.75.16-25.14.07-25.81-.15-1.14-.82-2.09-1.74-2.65-.69-.41-1.51-.61-2.37-.5-2,.26-3.41,2.09-3.17,4.09.04.4.79,9.49-10.68,17.36,2.03-8.43,11.45-21.4,19.07-29.57,1.3-1.39,1.32-3.54.04-4.95-.25-.27-.53-.5-.83-.68-1.25-.76-2.88-.71-4.1.21-.47.36-11.4,8.64-38.56,32.66-.39-7.54,7.17-15.57,7.26-15.67,1.38-1.44,1.35-3.72-.06-5.13-.21-.21-.45-.39-.69-.54-1.39-.84-3.21-.68-4.43.49-.37.35-7.89,7.69-16.34,24.55-3.72-8.55-10.91-18.33-18.68-23.03-4.24-2.56-8.36-3.48-12.26-2.72-1.36.26-2.46,1.28-2.83,2.62-.37,1.34.04,2.77,1.08,3.7,5.31,4.79,7.89,10.07,7.88,16.14-.02,9.53-6.49,18.75-11.08,24.08-1.34-7.02-2.64-18.57.7-27.79.54-1.5.06-3.17-1.2-4.14-.11-.09-.23-.17-.35-.24-1.22-.74-2.76-.71-3.96.11-9.74,6.64-15.16,22.42-17.88,33.51-4.18-11.3-8.12-26.92-3.89-36.22.65-1.43.32-3.11-.82-4.18-.19-.18-.4-.34-.62-.47-1.08-.65-2.45-.71-3.6-.11-24.53,12.9-25.59,39.32-23.75,54.9-3.03-2.68-6.7-5.57-10.77-8.03-8.47-5.12-16.4-7.05-23.58-5.74-1.5.27-2.67,1.45-2.95,2.94-.28,1.5.4,3.01,1.71,3.8,5.93,3.59,10.07,13.56,12.78,23.8-3.2-4.9-7.04-9.77-11.44-13.67-.17-.15-.34-.28-.53-.39-.65-.39-1.42-.58-2.19-.52-.99.08-1.91.56-2.54,1.33-.94,1.14-1.59,2.66-2.02,4.48-.67-6.3-.92-13.21-.57-20.7.06-1.35-.62-2.62-1.76-3.31-.09-.05-.17-.1-.27-.15-1.3-.65-2.86-.46-3.98.47-18.84,15.7-18.14,50.28-16.46,67.4-3.81-3.16-8.76-6.94-14.06-10.14-10.02-6.06-18.36-8.24-24.79-6.48C1.09,108.77-.02,110.24,0,111.91c.02,1.29.71,2.45,1.77,3.09.31.19.65.33,1.02.42,1.86.46,3.77,1.28,5.69,2.44,22.47,13.59,39.16,67.36,39.32,67.9.27.87.84,1.6,1.61,2.06Z"/>
        <path class="cls-4" d="m61.23,138.1s-8.77-48.46,12.43-66.12c-1.89,39.89,14.9,61.78,14.9,61.78,0,0-12.96-37.49-6.78-45.01,12.13,10.73,19.41,30.82,19.41,30.82,0,0-3-36.85-16.73-45.16,17.13-3.12,35.41,19.07,35.41,19.07,0,0-12.52-40.4,17.55-56.21-7.12,15.62,7.63,44.85,7.63,44.85,0,0,3.93-29.65,16.68-38.35-5.04,13.95.65,32.63.65,32.63,0,0,28.57-25.51,6.88-45.08,12.47-2.42,27.11,22.11,26.12,29.72,8.85-20.88,17.85-29.51,17.85-29.51,0,0-11.75,12.23-5.68,22.06,27.26-24.24,38.05-32.38,38.05-32.38,0,0-21.67,23.23-17.84,34.34,17.58-8.71,15.98-21.58,15.98-21.58,0,0,2.27,16.79-1.34,27.51,0,0,19.67-4.51,30.04-18.76,0,0-6.35,20.19-16.87,27.89,20.43-13.43,24.95-24.77,24.95-24.77,0,0,3.3,19.45-6.89,27.71,17.57-9.53,24.6-26.96,41.74-33.01-18.74,20.32-22.58,37.34-22.58,37.34,0,0,17.68-11.58,23.35-23.97,7.08,3.7-6.51,31.82-6.51,31.82l-244.06,97.51s-18.13-59.14-42.65-65.19c14-3.84,38.31,20.02,38.31,20.02Z"/>
      </g>
      <g>
        <path class="cls-1" d="m160.52,239.76c.07-.08.14-.16.22-.23.67-.64,1.57-.97,2.49-.91l263.46,16.66c.82.05,1.59.41,2.16,1,.22.23,5.55,5.78,10.34,12.17,7.52,10.04,9.45,16.54,6.09,20.45-.09.1-.18.2-.27.29-.63.65-1.5,1.01-2.4.99-.9-.01-1.76-.39-2.38-1.06-4.3-4.65-11.38-8.31-17.37-10.81,5.1,5.25,13.15,12.16,24.84,18.68,1.32.74,1.97,2.28,1.57,3.74-.13.48-.37.92-.68,1.28-.63.73-1.56,1.17-2.57,1.15-10.58-.23-19.3-4.86-27.73-9.33-3.12-1.65-6.28-3.33-9.58-4.82,4.35,7.43,5.64,15.68,5.73,16.22.15.97-.15,1.93-.76,2.64-.31.36-.7.65-1.15.86-1.35.61-2.93.24-3.88-.89-.03-.04-2.11-2.39-7.2-5.49,3.33,3.72,5.47,6.67,5.68,6.96.89,1.24.8,2.92-.18,4.07-.06.06-.11.13-.17.19-1.14,1.14-2.94,1.28-4.25.34-8.8-6.34-20.14-7.74-26.78-7.96,4.94,9.5,7.18,21.43,7.29,22.03.19,1.02-.12,2.02-.74,2.75-.47.55-1.12.94-1.88,1.09-1.78.34-3.5-.82-3.85-2.6-.08-.35-1.99-8.33-13.99-11.84,4.09,6.63,15.78,15.07,24.58,19.92,1.5.82,2.12,2.66,1.43,4.22-.13.3-.31.58-.51.82-.86,1-2.26,1.42-3.57.97-.5-.17-12.16-4.19-42.09-17.09,1.78,6.55,10.49,11.29,10.59,11.35,1.58.85,2.2,2.8,1.39,4.4-.12.24-.27.46-.44.66-.95,1.1-2.55,1.48-3.92.82-.41-.2-8.89-4.36-20.84-16.4-.78,8.35-4.18,18.72-9.5,24.9-2.9,3.38-6.17,5.32-9.71,5.76-1.24.16-2.46-.4-3.15-1.44-.69-1.04-.74-2.38-.12-3.47,3.19-5.58,3.92-10.81,2.21-15.99-2.68-8.14-10.8-14.2-16.22-17.47.82,6.38,2.95,16.6,8.38,23.55.88,1.13.94,2.69.14,3.88-.07.11-.15.21-.23.3-.83.97-2.16,1.38-3.41,1.02-10.18-2.94-19.23-14.91-24.66-23.62-.41,10.82.6,25.28,6.83,32.04.96,1.04,1.15,2.56.47,3.8-.11.21-.25.4-.4.58-.74.86-1.89,1.3-3.05,1.1-24.57-4.15-32.88-26.43-35.68-40.24-1.84,3.14-4.17,6.63-6.95,9.88-5.8,6.75-12.03,10.62-18.54,11.52-1.36.19-2.69-.49-3.34-1.69-.66-1.2-.5-2.69.39-3.72,4.06-4.73,4.8-14.41,4.25-23.91-1.36,5.08-3.27,10.32-5.95,14.89-.1.17-.22.33-.34.48-.45.52-1.05.89-1.72,1.06-.87.21-1.79.06-2.54-.42-1.12-.71-2.11-1.83-2.98-3.26,1.2,5.57,2.91,11.55,5.31,17.85.43,1.14.2,2.41-.58,3.32-.06.07-.12.13-.19.2-.93.92-2.31,1.2-3.53.72-20.5-8.13-29.59-37.87-32.95-52.97-2.37,3.77-5.54,8.38-9.17,12.6-6.86,7.99-13.38,12.19-19.36,12.48-1.5.07-2.86-.87-3.31-2.3-.35-1.11-.08-2.29.65-3.14.21-.25.47-.47.75-.65,1.46-.91,2.86-2.15,4.18-3.68,15.39-17.91,14.58-68.52,14.57-69.03-.02-.81.27-1.6.8-2.21Z"/>
        <path class="cls-4" d="m179.98,286.98s6.42,46.25,30.74,55.9c-13.49-35.38-4.83-60.06-4.83-60.06,0,0-.59,37.6,7.2,42.56,7.76-13.26,8.37-33.51,8.37-33.51,0,0,8.19,34.08-1.73,45.63,16.35-2.25,26.27-27.65,26.27-27.65,0,0,.66,40.09,32.42,45.45-11.03-11.97-6.38-42.66-6.38-42.66,0,0,12.3,25.56,26.36,29.62-8.67-11.07-9.06-29.59-9.06-29.59,0,0,33.28,14.53,19.52,38.58,11.95-1.51,17.89-27.93,14.74-34.5,14.15,16.2,24.8,21.31,24.8,21.31,0,0-14.2-7.54-11.64-18.19,31.73,13.78,43.84,17.92,43.84,17.92,0,0-26.39-14.53-26.22-25.67,18.41,2.65,20.78,14.72,20.78,14.72,0,0-2.92-15.8-9.33-24.39,0,0,19.06-1.75,32.61,8.02,0,0-11.69-16.31-23.44-20.14,22.38,6.06,29.8,14.94,29.8,14.94,0,0-2.77-18.5-14.39-22.93,18.65,3.39,30.13,17.02,47.36,17.4-22.89-12.77-31.38-26.96-31.38-26.96,0,0,19.35,5.21,28.13,14.7,5.29-5.42-15.27-26.74-15.27-26.74l-248.69-15.72s1.15,58.64-19.16,71.33c13.75-.68,28.59-29.36,28.59-29.36Z"/>
      </g>
      <g>
        <path class="cls-11" d="m430.55,302.88c-14.28-1.25-27.86-13.1-42.16-13.94-14.3-.83-29.05,9.37-43.36,8.95-14.32-.42-28.5-11.46-42.82-11.46s-28.51,11.04-42.82,11.46c-14.32.42-29.06-9.78-43.36-8.95-14.3.83-27.88,12.69-42.16,13.94-10.17.87-19.86-10.33-29.65-11.97-10.01-1.68-22.51,5.75-31.71,1.7-9.31-4.09-13.05-18.69-21.1-24.94-8.08-6.27-22.47-5.76-28.86-13.93-6.33-8.1-3.05-22.76-7.29-32.46-4.11-9.41-16.9-16.32-18.65-26.99-.02-.15-.13-.83-.15-.98-.02-.15-.11-.76-.14-.91-.02-.15-.1-.68-.13-.84-1.87-11.34,8.29-22.71,9.91-33.65,1.65-11.11-4.71-25.13.12-35.23,4.74-9.91,19.29-13.06,26.69-21.41,7.14-8.06,8.93-23.56,18.2-29.65,8.84-5.81,22.88-.86,33.34-4.41,9.86-3.35,18.35-16.16,29.38-17.12,16.4-1.44,33.54,8.18,49.96,7.22,16.43-.96,32.45-12.5,48.9-12.98,16.45-.48,33.05,10.12,49.51,10.12s33.06-10.6,49.51-10.12c16.45.48,32.47,12.02,48.9,12.98,16.43.96,33.56-8.66,49.96-7.22,11.03.96,19.52,13.76,29.38,17.12,10.45,3.56,24.5-1.4,33.34,4.41,9.26,6.09,11.05,21.58,18.2,29.65,7.4,8.36,21.95,11.51,26.69,21.42,4.83,10.1-1.53,24.12.12,35.22,1.62,10.94,11.78,22.32,9.91,33.65-.02.15-.1.68-.13.84-.02.15-.11.76-.14.91-.02.15-.13.83-.15.98-1.75,10.67-14.54,17.58-18.65,26.99-4.24,9.7-.96,24.36-7.29,32.46-6.39,8.17-20.77,7.66-28.86,13.93-8.05,6.25-11.79,20.84-21.1,24.94-9.2,4.04-21.7-3.38-31.71-1.7-9.79,1.64-19.48,12.84-29.65,11.97Z"/>
        <path class="cls-12" d="m555.34,181.01c-.03.13-.1.62-.13.77,0,.13-.1.7-.13.85-.03.13-.1.77-.13.9-1.26,7.3-8.36,12.72-13.62,18.54-1.88,2.06-3.53,4.2-4.59,6.5-1.16,2.53-1.75,5.42-2.11,8.46-.95,7.71-.57,16.27-5,21.69-6.24,7.58-20.27,7.09-28.17,12.92-7.84,5.8-11.5,19.34-20.58,23.14-8.98,3.77-21.18-3.12-30.95-1.57-9.54,1.52-18.98,11.92-28.91,11.12-13.93-1.16-27.18-12.17-41.14-12.95-13.95-.77-28.35,8.69-42.32,8.31-13.98-.39-27.8-10.63-41.78-10.63s-27.8,10.24-41.78,10.63c-13.98.39-28.37-9.08-42.32-8.31-13.95.77-27.21,11.79-41.14,12.95-9.93.8-19.37-9.59-28.91-11.12-9.78-1.55-21.97,5.34-30.95,1.57-9.08-3.79-12.74-17.33-20.58-23.14-7.89-5.83-21.92-5.34-28.17-12.92-6.19-7.53-2.99-21.15-7.12-30.15-4.02-8.72-16.48-15.14-18.21-25.04-.03-.13-.1-.77-.13-.9-.03-.15-.13-.72-.13-.85-.03-.15-.1-.64-.13-.77-1.83-10.52,8.07-21.1,9.67-31.23,1.6-10.32-4.59-23.34.1-32.7,4.64-9.21,18.83-12.12,26.05-19.89,6.96-7.48,8.72-21.87,17.77-27.52,8.61-5.39,22.31-.8,32.52-4.1,9.62-3.1,17.9-14.99,28.68-15.89,15.99-1.32,32.7,7.61,48.75,6.71,16.04-.88,31.67-11.61,47.72-12.04,16.04-.44,32.24,9.39,48.31,9.39s32.27-9.83,48.31-9.39c16.04.44,31.67,11.17,47.72,12.04,16.04.9,32.76-8.02,48.75-6.71,10.78.9,19.06,12.79,28.68,15.89,10.21,3.3,23.91-1.29,32.52,4.1,9.05,5.65,10.81,20.04,17.77,27.52,7.22,7.76,21.41,10.68,26.05,19.89,1.47,2.94,1.88,6.27,1.78,9.75-.08,3.4-.67,6.94-1.16,10.47-.62,4.33-1.11,8.59-.52,12.48,1.6,10.14,11.5,20.71,9.67,31.23Z"/>
        <path class="cls-8" d="m551.18,179.9c-.03.15-.1.64-.13.77-.03.15-.1.7-.13.85-.03.13-.13.75-.13.9-1.29,7.4-8.59,12.82-13.85,18.72-1.73,1.96-3.22,3.97-4.2,6.11-1.26,2.76-1.86,5.96-2.22,9.29-.83,7.43-.62,15.45-4.85,20.61-6.19,7.53-20.12,7.07-27.93,12.84-7.79,5.75-11.43,19.19-20.43,22.96-8.9,3.71-21.02-3.12-30.69-1.57-9.49,1.52-18.85,11.81-28.71,11.01-13.82-1.13-26.95-12.04-40.8-12.82-13.85-.77-28.11,8.61-41.96,8.23-13.88-.39-27.6-10.55-41.47-10.55s-27.57,10.16-41.45,10.55c-13.85.39-28.11-9-41.96-8.23-13.85.77-27,11.68-40.83,12.82-9.83.8-19.22-9.49-28.68-11.01-9.7-1.55-21.79,5.29-30.69,1.57-9.03-3.77-12.64-17.2-20.43-22.98-5.11-3.74-12.82-4.85-19.24-7.3-3.46-1.26-6.55-2.89-8.69-5.52-3.12-3.79-3.84-9.1-4.33-14.62-.46-5.34-.7-10.86-2.73-15.27-3.97-8.67-16.35-15.01-18.05-24.84-.03-.15-.13-.77-.13-.9-.03-.15-.13-.7-.15-.85,0-.13-.08-.62-.1-.77-1.81-10.42,8.02-20.92,9.59-30.98.75-4.75-.18-10.06-.93-15.32-.46-3.25-.85-6.5-.72-9.59.1-2.66.59-5.21,1.75-7.53,4.59-9.13,18.67-12.02,25.84-19.71,6.91-7.43,8.64-21.69,17.62-27.31,8.56-5.34,22.16-.77,32.27-4.05,9.54-3.09,17.77-14.88,28.45-15.76,11.55-.98,23.5,3.46,35.28,5.62,4.38.77,8.77,1.26,13.08,1.01,6.32-.34,12.53-2.22,18.75-4.38,9.49-3.3,18.96-7.3,28.58-7.56,15.94-.44,32.01,9.31,47.92,9.31s32.01-9.75,47.92-9.31c15.94.44,31.44,11.06,47.35,11.94,15.89.9,32.47-7.97,48.36-6.63,10.68.88,18.88,12.66,28.42,15.76,10.14,3.28,23.73-1.29,32.29,4.05,8.95,5.62,10.7,19.89,17.62,27.31,7.17,7.69,21.25,10.57,25.82,19.71,4.69,9.31-1.47,22.21.13,32.45,1.57,10.08,11.4,20.56,9.59,30.98Z"/>
        <path class="cls-3" d="m541.33,202.08c-1.88,2.06-3.53,4.2-4.59,6.5-1.16,2.53-1.75,5.42-2.11,8.46-94.86,8.1-150.45-9-153.21-9.88,50.6,10.03,111.6,3.74,159.91-5.08Z"/>
        <path class="cls-9" d="m221.41,230.79c-34.77,14.19-113.25,13.28-151.01,11.89-3.46-1.26-6.55-2.89-8.69-5.52-3.12-3.79-3.84-9.1-4.33-14.62,26.75,6.09,90.89,17.54,164.04,8.25Z"/>
        <path class="cls-14" d="m266.16,258.33s127.57-8.97,141-13.58c13.43-4.6,1.33.05,1.33.05,0,0-60.1,26.35-142.34,13.53Z"/>
        <path class="cls-10" d="m79.81,130.97c-13.95,2.32-26.46,2.73-34.95,2.63-.46-3.25-.85-6.5-.72-9.59,8.67,2.37,21.74,5.44,35.67,6.96Z"/>
        <path class="cls-7" d="m217.18,51.9c-9.18,10.57-46.22,12.12-71.52,10.08,10.5-1.08,27.26-4.2,39.69-6.71,4.38.77,8.77,1.26,13.08,1.01,6.32-.34,12.53-2.22,18.75-4.38Z"/>
        <path class="cls-5" d="m547.34,126.82c-.08,3.4-.67,6.94-1.16,10.47-17.13-2.68-30.8-10.47-30.8-10.47h31.96Z"/>
      </g>
      <g>
        <path class="cls-15" d="m514.61,175.55c-7.8,50.45-48.74,85.37-93.89,85.37-2.77,0-5.56-.13-8.39-.4-76.3-7.51-153.07-7.51-229.37,0-48.34,4.65-93.97-31.42-102.25-84.97-.75-4.87-1.12-9.71-1.12-14.52,0-.99.03-1.98.05-2.97,1.46-46.76,37.54-88.45,87.66-93.34,86.73-8.53,173.97-8.53,260.71,0,50.1,4.89,86.2,46.58,87.66,93.37.19,5.75-.16,11.6-1.06,17.46Z"/>
        <path class="cls-16" d="m512.93,157.04c-.08,3.97-.45,7.99-1.06,12.01-7.75,49.89-48.41,84.47-93.25,84.47-2.78,0-5.58-.13-8.39-.4-75.82-7.43-152.11-7.43-227.93,0-48.04,4.63-93.38-31.08-101.61-84.07-.61-4.02-.98-8.04-1.06-12.04,1.45-46.27,37.3-87.51,87.11-92.35,86.19-8.44,172.88-8.44,259.07,0,49.79,4.84,85.66,46.08,87.11,92.38Z"/>
        <path class="cls-17" d="m506.48,150.93c0,4.13-.37,8.31-1.08,12.46-7.49,43.76-46.85,74.05-90.26,74.05-2.7,0-5.4-.11-8.1-.34-73.41-6.51-147.25-6.51-220.66,0-36.93,3.23-72.25-15.87-89.2-47.12-4.39-8.1-7.54-17.04-9.18-26.59-.71-4.21-1.08-8.41-1.08-12.57,0-41.67,35.18-79.23,84.39-83.6,83.44-7.38,167.38-7.38,250.79,0,49.28,4.37,84.44,42.01,84.39,83.7Z"/>
        <path class="cls-6" d="m506.48,150.93c0,4.13-.37,8.31-1.08,12.46-7.49,43.76-46.85,74.05-90.26,74.05-2.7,0-5.4-.11-8.1-.34-73.41-6.51-147.25-6.51-220.66,0-36.93,3.23-72.25-15.87-89.2-47.12,133.01,36.76,375.97-.17,409.3-39.05Z"/>
        <ellipse class="cls-2" cx="189.21" cy="86.07" rx="27.69" ry="8.11"/>
        <path class="cls-2" d="m145.63,94.6c1.09,3.31-3.06,7.66-9.28,9.71s-12.15,1.02-13.24-2.29,3.06-7.66,9.28-9.71c6.22-2.05,12.15-1.02,13.24,2.29Z"/>
      </g>
    </g>
  </g>
</svg>