<?xml version="1.0" encoding="UTF-8"?>
<svg id="Camada_2" data-name="Camada 2" xmlns="http://www.w3.org/2000/svg" xmlns:xlink="http://www.w3.org/1999/xlink" viewBox="0 0 1226.83 890.1">
  <defs>
    <style>
      .cls-1 {
        fill: url(#linear-gradient-2);
      }

      .cls-2 {
        fill: url(#linear-gradient-17);
      }

      .cls-3 {
        fill: url(#linear-gradient-15);
      }

      .cls-4 {
        fill: url(#linear-gradient-18);
      }

      .cls-5 {
        fill: url(#linear-gradient-14);
      }

      .cls-6 {
        fill: url(#linear-gradient-20);
      }

      .cls-7 {
        fill: url(#linear-gradient-6);
      }

      .cls-8 {
        fill: url(#linear-gradient-11);
      }

      .cls-9 {
        fill: url(#linear-gradient-10);
      }

      .cls-10 {
        fill: url(#linear-gradient-16);
      }

      .cls-11 {
        fill: url(#linear-gradient-21);
      }

      .cls-12 {
        fill: url(#linear-gradient-5);
      }

      .cls-13 {
        fill: #95d543;
      }

      .cls-14 {
        fill: #96440c;
        opacity: .2;
      }

      .cls-15 {
        fill: #318063;
      }

      .cls-16 {
        fill: url(#linear-gradient-7);
      }

      .cls-17 {
        fill: url(#linear-gradient-9);
      }

      .cls-18 {
        fill: url(#linear-gradient-3);
      }

      .cls-19 {
        fill: none;
        opacity: .25;
      }

      .cls-20 {
        fill: url(#linear-gradient);
      }

      .cls-21 {
        fill: url(#linear-gradient-19);
      }

      .cls-22 {
        fill: url(#linear-gradient-4);
      }

      .cls-23 {
        fill: url(#linear-gradient-8);
      }

      .cls-24 {
        fill: #e3ffbb;
      }

      .cls-25 {
        fill: url(#linear-gradient-12);
      }

      .cls-26 {
        fill: url(#linear-gradient-13);
      }
    </style>
    <linearGradient id="linear-gradient" x1="-21.26" y1="862.19" x2="316.4" y2="644.23" gradientUnits="userSpaceOnUse">
      <stop offset="0" stop-color="#95d543"/>
      <stop offset=".26" stop-color="#72b74e"/>
      <stop offset=".58" stop-color="#4e9959"/>
      <stop offset=".83" stop-color="#388660"/>
      <stop offset="1" stop-color="#318063"/>
    </linearGradient>
    <linearGradient id="linear-gradient-2" x1="-62.64" y1="308.9" x2="216.16" y2="280.33" xlink:href="#linear-gradient"/>
    <linearGradient id="linear-gradient-3" x1="-673.85" y1="862.19" x2="-336.2" y2="644.23" gradientTransform="translate(574.23) rotate(-180) scale(1 -1)" xlink:href="#linear-gradient"/>
    <linearGradient id="linear-gradient-4" x1="-715.24" y1="308.9" x2="-436.44" y2="280.33" gradientTransform="translate(574.23) rotate(-180) scale(1 -1)" xlink:href="#linear-gradient"/>
    <linearGradient id="linear-gradient-5" x1="616.41" y1="927.9" x2="619.37" y2="730.63" xlink:href="#linear-gradient"/>
    <linearGradient id="linear-gradient-6" x1="373.49" y1="-194.15" x2="673.6" y2="565.94" gradientUnits="userSpaceOnUse">
      <stop offset="0" stop-color="#f8a45b"/>
      <stop offset=".22" stop-color="#c87e40"/>
      <stop offset=".47" stop-color="#975824"/>
      <stop offset=".7" stop-color="#733c10"/>
      <stop offset=".88" stop-color="#5d2b04"/>
      <stop offset="1" stop-color="#562500"/>
    </linearGradient>
    <linearGradient id="linear-gradient-7" x1="818.77" y1="953.52" x2="509.11" y2="115.02" gradientUnits="userSpaceOnUse">
      <stop offset="0" stop-color="#f8a45b"/>
      <stop offset=".39" stop-color="#cb7837"/>
      <stop offset=".79" stop-color="#a45218"/>
      <stop offset="1" stop-color="#96440c"/>
    </linearGradient>
    <linearGradient id="linear-gradient-8" x1="513.19" y1="109.52" x2="828.89" y2="1020.42" xlink:href="#linear-gradient-7"/>
    <linearGradient id="linear-gradient-9" x1="1026.59" y1="342.92" x2="1022.82" y2="425.87" gradientUnits="userSpaceOnUse">
      <stop offset=".38" stop-color="#96440c"/>
      <stop offset=".4" stop-color="#9a480f"/>
      <stop offset=".5" stop-color="#b76427"/>
    </linearGradient>
    <linearGradient id="linear-gradient-10" x1="619.81" y1="596.01" x2="620.81" y2="637.23" xlink:href="#linear-gradient-9"/>
    <linearGradient id="linear-gradient-11" x1="518.95" y1="722.63" x2="516.94" y2="750.78" xlink:href="#linear-gradient-9"/>
    <linearGradient id="linear-gradient-12" x1="223.15" y1="420.09" x2="220.14" y2="447.74" xlink:href="#linear-gradient-9"/>
    <linearGradient id="linear-gradient-13" x1="673.33" y1="493.3" x2="670.32" y2="569.46" xlink:href="#linear-gradient-9"/>
    <linearGradient id="linear-gradient-14" x1="492.24" y1="247.69" x2="485.2" y2="305" xlink:href="#linear-gradient-9"/>
    <linearGradient id="linear-gradient-15" x1="905.1" y1="189.82" x2="905.1" y2="211.69" xlink:href="#linear-gradient-9"/>
    <linearGradient id="linear-gradient-16" x1="272.07" y1="74.1" x2="272.07" y2="512.38" xlink:href="#linear-gradient-9"/>
    <linearGradient id="linear-gradient-17" x1="969.58" y1="74.1" x2="969.58" y2="512.38" xlink:href="#linear-gradient-9"/>
    <linearGradient id="linear-gradient-18" x1="227.2" y1="82.93" x2="277.07" y2="150.76" gradientUnits="userSpaceOnUse">
      <stop offset="0" stop-color="#318063"/>
      <stop offset=".35" stop-color="#22664c"/>
      <stop offset=".75" stop-color="#165039"/>
      <stop offset="1" stop-color="#124933"/>
    </linearGradient>
    <linearGradient id="linear-gradient-19" x1="-1839.7" y1="82.93" x2="-1789.83" y2="150.76" gradientTransform="translate(-825.25) rotate(-180) scale(1 -1)" xlink:href="#linear-gradient-18"/>
    <linearGradient id="linear-gradient-20" x1="620.83" y1="-90.63" x2="620.83" y2="174.91" xlink:href="#linear-gradient-18"/>
    <linearGradient id="linear-gradient-21" x1="620.83" y1="173.9" x2="620.83" y2="-97.29" gradientUnits="userSpaceOnUse">
      <stop offset="0" stop-color="#95d543"/>
      <stop offset=".03" stop-color="#98d648"/>
      <stop offset=".35" stop-color="#b8e879"/>
      <stop offset=".63" stop-color="#cff49d"/>
      <stop offset=".85" stop-color="#ddfcb3"/>
      <stop offset="1" stop-color="#e3ffbb"/>
    </linearGradient>
  </defs>
  <g id="Layer_1" data-name="Layer 1">
    <g>
      <g>
        <g>
          <path class="cls-20" d="m110.09,619.13c.1,0,.21.03.31.05.88.17,1.65.71,2.12,1.47l134.48,219.03c.42.68.57,1.5.42,2.28-.06.31-1.48,7.66-3.89,15.05-3.78,11.61-7.87,16.8-12.86,16.32-.13-.01-.26-.03-.38-.05-.87-.14-1.64-.63-2.14-1.35-.5-.73-.67-1.62-.49-2.48,1.29-6.03.23-13.71-1.14-19.89-1.32,7-2.3,17.28-.94,30.25.15,1.47-.71,2.85-2.1,3.35-.46.17-.94.22-1.4.18-.93-.09-1.81-.59-2.36-1.4-5.75-8.56-6.96-18.09-8.13-27.31-.43-3.41-.87-6.86-1.54-10.33-3.47,7.62-9.31,13.28-9.7,13.65-.69.66-1.62.96-2.53.87-.46-.04-.91-.19-1.33-.43-1.24-.73-1.84-2.2-1.46-3.59.01-.04.72-3.02.33-8.8-1.09,4.74-2.24,8.09-2.36,8.42-.49,1.41-1.88,2.28-3.34,2.14-.08,0-.16-.02-.25-.03-1.55-.27-2.67-1.62-2.66-3.19.11-10.56-5.13-20.37-8.68-25.78-4.8,9.26-13.03,17.73-13.44,18.16-.71.72-1.67,1.04-2.6.95-.7-.07-1.38-.36-1.92-.89-1.27-1.23-1.31-3.25-.09-4.52.23-.26,5.51-6.25,1.58-17.77-2.98,6.98-3.15,21.01-2.07,30.73.18,1.65-.93,3.17-2.56,3.5-.32.06-.63.08-.94.05-1.28-.12-2.39-1.01-2.77-2.29-.15-.5-3.48-12.03-10-43.09-4.21,5.09-3.11,14.68-3.09,14.8.21,1.73-1,3.32-2.72,3.57-.26.04-.52.04-.77.02-1.41-.14-2.61-1.2-2.85-2.66-.07-.44-1.52-9.52,1.36-25.78-7.08,4.06-17.24,7.16-25.15,6.4-4.31-.42-7.69-1.93-10.03-4.5-.82-.9-1.06-2.18-.62-3.32.44-1.13,1.48-1.92,2.69-2.04,6.23-.59,10.8-2.95,13.97-7.21,4.97-6.7,5.24-16.56,4.81-22.7-4.61,4.23-11.56,11.65-14.04,19.88-.4,1.33-1.62,2.25-3.01,2.28-.13,0-.25,0-.37-.01-1.24-.12-2.31-.95-2.72-2.15-3.37-9.75,1.08-23.67,4.97-32.87-8.84,5.75-19.78,14.66-21.67,23.4-.29,1.34-1.4,2.35-2.76,2.51-.23.03-.46.03-.68,0-1.1-.11-2.09-.78-2.59-1.81-10.48-21.88,2.59-40.99,12.02-50.96-3.53.3-7.62.4-11.76,0-8.62-.83-15.2-3.62-19.56-8.3-.91-.98-1.12-2.41-.53-3.61.59-1.2,1.86-1.9,3.19-1.77,6.04.58,14.16-4.26,21.41-10.03-4.81,1.76-10.05,3.18-15.18,3.62-.19.02-.39.01-.58,0-.66-.06-1.3-.33-1.81-.78-.66-.57-1.05-1.39-1.09-2.26-.06-1.29.27-2.7.92-4.2-3.76,4.08-7.56,8.79-11.22,14.24-.66.98-1.8,1.51-2.97,1.4-.09,0-.17-.02-.26-.04-1.25-.23-2.25-1.17-2.55-2.41-5.02-20.87,13.55-44.78,23.68-55.93-4.33.23-9.77.29-15.17-.23-10.21-.98-17.2-3.81-20.79-8.41-.9-1.15-.91-2.76-.02-3.93.69-.9,1.78-1.35,2.86-1.24.32.03.63.11.94.24,1.54.65,3.32,1.07,5.27,1.26,22.88,2.2,62.71-26.82,63.11-27.11.64-.47,1.43-.68,2.21-.61Z"/>
          <path class="cls-15" d="m91.89,660.27s-31.59,29.53-25.92,53.08c19.59-29.08,42.89-35.69,42.89-35.69,0,0-28.78,19.61-28.38,28.15,14.17-1.2,29.83-11.53,29.83-11.53,0,0-21.43,24.38-35.46,23.03,10.43,11.18,34.94,5.14,34.94,5.14,0,0-30,21.88-17.12,48.79,3.18-14.74,28.9-27.58,28.9-27.58,0,0-12.79,22.94-8.36,35.76,3.76-12.47,17.57-22.64,17.57-22.64,0,0,6.75,32.95-18.8,35.35,7.52,8.25,30.68-1.35,33.98-7.24-4.71,19.35-2.9,30.14-2.9,30.14,0,0-1.87-14.77,7.56-18.51,6.49,31.37,9.82,42.75,9.82,42.75,0,0-3.08-27.73,5.44-33.54,7.81,15.35-.06,23.58-.06,23.58,0,0,10.4-10.64,13.48-20.07,0,0,11.49,13.49,11.32,28.96,0,0,6.12-17.55,2.75-28.49,7.35,20.17,4.58,30.53,4.58,30.53,0,0,12.52-11.96,9.68-23.13,7.38,15.92,3.19,31.89,12.09,45.14-2.54-24.14,3.67-38.14,3.67-38.14,0,0,6.38,17.43,3.88,29.13,6.93,1.11,12.1-25.82,12.1-25.82l-120.74-196.66s-43.78,32.15-64.22,23.54c7.85,10.05,37.48,5.99,37.48,5.99Z"/>
        </g>
        <g>
          <path class="cls-1" d="m154.22,159.77c.08.09.15.18.22.28.59.84.81,1.88.59,2.88l-61.42,287.11c-.19.9-.71,1.69-1.46,2.22-.29.21-7.27,5.17-15.08,9.38-12.28,6.63-19.74,7.69-23.5,3.36-.1-.11-.19-.23-.28-.34-.61-.8-.86-1.81-.7-2.81.16-.99.72-1.87,1.55-2.44,5.81-3.97,11-11.16,14.73-17.34-6.61,4.75-15.53,12.48-24.62,24.28-1.03,1.33-2.83,1.8-4.37,1.12-.51-.22-.95-.56-1.3-.96-.7-.81-1.03-1.91-.84-3.02,1.99-11.61,8.5-20.44,14.8-28.99,2.33-3.16,4.69-6.36,6.87-9.75-8.88,3.57-18.17,3.64-18.78,3.65-1.09,0-2.1-.48-2.78-1.27-.34-.4-.61-.87-.76-1.4-.45-1.58.22-3.27,1.62-4.12.04-.03,2.97-1.93,7.21-7.02-4.64,3.06-8.23,4.92-8.59,5.11-1.51.78-3.35.41-4.44-.86-.06-.07-.12-.14-.18-.22-1.07-1.44-.93-3.45.32-4.74,8.42-8.65,11.81-20.89,13.14-28.16-11.26,3.88-24.75,4.4-25.43,4.42-1.15.04-2.2-.46-2.9-1.27-.52-.61-.85-1.39-.89-2.25-.08-2.01,1.48-3.72,3.49-3.81.4-.03,9.49-.82,15.31-13.45-7.97,3.42-19.16,14.89-25.93,23.78-1.15,1.51-3.27,1.89-4.88.88-.31-.2-.58-.43-.81-.7-.96-1.11-1.19-2.72-.48-4.08.27-.53,6.6-12.69,25.69-43.51-7.5.89-14.14,9.69-14.22,9.8-1.19,1.6-3.44,1.96-5.06.8-.25-.17-.46-.37-.65-.59-1.06-1.23-1.21-3.05-.26-4.45.29-.42,6.25-9.07,21.45-20.24-9.05-2.23-19.9-7.66-25.84-14.53-3.24-3.74-4.84-7.66-4.75-11.63.03-1.39.84-2.64,2.1-3.23,1.26-.59,2.74-.42,3.83.44,5.62,4.43,11.25,6.08,17.23,5.05,9.39-1.62,17.39-9.56,21.87-14.98-7.15-.14-18.75.53-27.28,5.37-1.38.79-3.11.59-4.29-.48-.11-.1-.2-.2-.3-.31-.93-1.07-1.16-2.61-.56-3.92,4.9-10.72,19.54-18.72,30.02-23.27-11.84-2.22-27.91-3.47-36.36,2.28-1.3.88-3.01.84-4.26-.1-.21-.16-.4-.34-.57-.53-.83-.96-1.12-2.29-.71-3.53,8.58-26.36,34.45-31.85,50.11-32.67-3.15-2.54-6.62-5.67-9.73-9.27-6.47-7.48-9.72-14.98-9.64-22.28.02-1.52.97-2.88,2.4-3.4,1.43-.52,3.04-.11,4.03,1.04,4.54,5.24,15.06,7.64,25.61,8.58-5.37-2.33-10.82-5.29-15.41-8.98-.17-.14-.33-.29-.47-.46-.5-.58-.81-1.3-.88-2.07-.09-.99.23-1.98.88-2.73.97-1.12,2.36-2.02,4.07-2.74-6.33.41-13.18,1.32-20.5,2.93-1.32.29-2.68-.17-3.56-1.18-.07-.08-.13-.15-.19-.24-.86-1.17-.94-2.74-.21-4,12.3-21.22,46.5-26.35,63.66-27.59-3.76-3.22-8.31-7.46-12.37-12.15-7.66-8.86-11.22-16.71-10.57-23.34.16-1.66,1.43-3,3.08-3.26,1.28-.2,2.53.28,3.34,1.22.24.27.44.59.59.93.76,1.75,1.9,3.5,3.37,5.2,17.18,19.86,72.99,27.24,73.55,27.31.9.12,1.72.56,2.3,1.24Z"/>
          <path class="cls-15" d="m107.2,179.8s-49.25-.47-63.08,23.4c39-8.59,63.41,4.28,63.41,4.28,0,0-39.14-6.45-45.51.91,12.63,10.15,33.66,13.93,33.66,13.93,0,0-36.83,3.26-47.33-8.88-.19,17.41,24.77,31.69,24.77,31.69,0,0-41.93-5.53-52.45,26.77,14.2-9.65,45.5-.04,45.5-.04,0,0-28.57,8.87-34.99,22.91,12.9-7.32,32.28-4.86,32.28-4.86,0,0-20.32,32.47-43.27,14.38-.28,12.7,26.36,22.99,33.7,20.73-19.09,12.25-26.08,22.57-26.08,22.57,0,0,10.07-13.65,20.78-9.32-19.3,30.96-25.5,42.96-25.5,42.96,0,0,19.25-25.28,30.84-23.38-5.62,18.8-18.57,19.39-18.57,19.39,0,0,16.93-.59,26.89-5.96,0,0-1.13,20.15-13.42,32.78,0,0,18.83-9.66,24.65-21.33-9.79,22.41-20.21,28.77-20.21,28.77,0,0,19.73-.02,26.16-11.46-6.43,18.93-22.43,28.8-25.5,46.71,16.87-21.9,32.99-28.55,32.99-28.55,0,0-8.44,19.38-19.69,27.06,4.84,6.36,30.27-11.78,30.27-11.78l54.97-257s-61.35-7.9-71.44-31.05c-1.42,14.45,26.19,34.38,26.19,34.38Z"/>
        </g>
        <g>
          <path class="cls-18" d="m1116.74,619.13c-.1,0-.21.03-.31.05-.88.17-1.65.71-2.12,1.47l-134.48,219.03c-.42.68-.57,1.5-.42,2.28.06.31,1.48,7.66,3.89,15.05,3.78,11.61,7.87,16.8,12.86,16.32.13-.01.26-.03.38-.05.87-.14,1.64-.63,2.14-1.35.5-.73.67-1.62.49-2.48-1.29-6.03-.23-13.71,1.14-19.89,1.32,7,2.3,17.28.94,30.25-.15,1.47.71,2.85,2.1,3.35.46.17.94.22,1.4.18.93-.09,1.81-.59,2.36-1.4,5.75-8.56,6.96-18.09,8.13-27.31.43-3.41.87-6.86,1.54-10.33,3.47,7.62,9.31,13.28,9.7,13.65.69.66,1.62.96,2.53.87.46-.04.91-.19,1.33-.43,1.24-.73,1.84-2.2,1.46-3.59-.01-.04-.72-3.02-.33-8.8,1.09,4.74,2.24,8.09,2.36,8.42.49,1.41,1.88,2.28,3.34,2.14.08,0,.16-.02.25-.03,1.55-.27,2.67-1.62,2.66-3.19-.11-10.56,5.13-20.37,8.68-25.78,4.8,9.26,13.03,17.73,13.44,18.16.71.72,1.67,1.04,2.6.95.7-.07,1.38-.36,1.92-.89,1.27-1.23,1.31-3.25.09-4.52-.23-.26-5.52-6.25-1.58-17.77,2.98,6.98,3.15,21.01,2.07,30.73-.18,1.65.93,3.17,2.56,3.5.32.06.63.08.94.05,1.28-.12,2.39-1.01,2.77-2.29.15-.5,3.48-12.03,10-43.09,4.21,5.09,3.11,14.68,3.09,14.8-.21,1.73,1,3.32,2.72,3.57.26.04.52.04.77.02,1.41-.14,2.61-1.2,2.85-2.66.07-.44,1.52-9.52-1.36-25.78,7.08,4.06,17.24,7.16,25.15,6.4,4.31-.42,7.69-1.93,10.03-4.5.82-.9,1.06-2.18.62-3.32-.44-1.13-1.48-1.92-2.69-2.04-6.23-.59-10.8-2.95-13.97-7.21-4.97-6.7-5.24-16.56-4.81-22.7,4.61,4.23,11.56,11.65,14.04,19.88.4,1.33,1.62,2.25,3.01,2.28.13,0,.25,0,.37-.01,1.24-.12,2.31-.95,2.72-2.15,3.37-9.75-1.08-23.67-4.97-32.87,8.84,5.75,19.78,14.66,21.67,23.4.29,1.34,1.4,2.35,2.76,2.51.23.03.46.03.68,0,1.1-.11,2.09-.78,2.59-1.81,10.48-21.88-2.59-40.99-12.02-50.96,3.53.3,7.62.4,11.76,0,8.62-.83,15.2-3.62,19.56-8.3.91-.98,1.12-2.41.53-3.61-.59-1.2-1.86-1.9-3.19-1.77-6.04.58-14.16-4.26-21.41-10.03,4.81,1.76,10.05,3.18,15.18,3.62.19.02.39.01.58,0,.66-.06,1.3-.33,1.81-.78.66-.57,1.05-1.39,1.09-2.26.06-1.29-.27-2.7-.92-4.2,3.76,4.08,7.56,8.79,11.22,14.24.66.98,1.8,1.51,2.97,1.4.09,0,.17-.02.26-.04,1.25-.23,2.25-1.17,2.55-2.41,5.02-20.87-13.55-44.78-23.68-55.93,4.33.23,9.77.29,15.17-.23,10.21-.98,17.2-3.81,20.79-8.41.9-1.15.91-2.76.02-3.93-.69-.9-1.78-1.35-2.86-1.24-.32.03-.63.11-.94.24-1.54.65-3.32,1.07-5.27,1.26-22.88,2.2-62.71-26.82-63.11-27.11-.64-.47-1.43-.68-2.21-.61Z"/>
          <path class="cls-15" d="m1134.94,660.27s31.59,29.53,25.92,53.08c-19.59-29.08-42.89-35.69-42.89-35.69,0,0,28.78,19.61,28.38,28.15-14.17-1.2-29.83-11.53-29.83-11.53,0,0,21.43,24.38,35.46,23.03-10.43,11.18-34.94,5.14-34.94,5.14,0,0,30,21.88,17.12,48.79-3.18-14.74-28.9-27.58-28.9-27.58,0,0,12.79,22.94,8.36,35.76-3.76-12.47-17.57-22.64-17.57-22.64,0,0-6.75,32.95,18.8,35.35-7.52,8.25-30.68-1.35-33.98-7.24,4.71,19.35,2.9,30.14,2.9,30.14,0,0,1.87-14.77-7.56-18.51-6.49,31.37-9.82,42.75-9.82,42.75,0,0,3.08-27.73-5.44-33.54-7.81,15.35.06,23.58.06,23.58,0,0-10.4-10.64-13.48-20.07,0,0-11.49,13.49-11.32,28.96,0,0-6.12-17.55-2.75-28.49-7.35,20.17-4.58,30.53-4.58,30.53,0,0-12.52-11.96-9.68-23.13-7.38,15.92-3.19,31.89-12.09,45.14,2.54-24.14-3.67-38.14-3.67-38.14,0,0-6.38,17.43-3.88,29.13-6.93,1.11-12.1-25.82-12.1-25.82l120.74-196.66s43.78,32.15,64.22,23.54c-7.85,10.05-37.48,5.99-37.48,5.99Z"/>
        </g>
        <g>
          <path class="cls-22" d="m1072.62,159.77c-.08.09-.15.18-.22.28-.59.84-.81,1.88-.59,2.88l61.42,287.11c.19.9.71,1.69,1.46,2.22.29.21,7.27,5.17,15.08,9.38,12.28,6.63,19.74,7.69,23.5,3.36.1-.11.19-.23.28-.34.61-.8.86-1.81.7-2.81-.16-.99-.72-1.87-1.55-2.44-5.81-3.97-11-11.16-14.73-17.34,6.61,4.75,15.53,12.48,24.62,24.28,1.03,1.33,2.83,1.8,4.37,1.12.51-.22.95-.56,1.3-.96.7-.81,1.03-1.91.84-3.02-1.99-11.61-8.5-20.44-14.8-28.99-2.33-3.16-4.69-6.36-6.87-9.75,8.88,3.57,18.17,3.64,18.78,3.65,1.09,0,2.1-.48,2.78-1.27.34-.4.61-.87.76-1.4.45-1.58-.22-3.27-1.62-4.12-.04-.03-2.97-1.93-7.21-7.02,4.64,3.06,8.23,4.92,8.59,5.11,1.51.78,3.35.41,4.44-.86.06-.07.12-.14.18-.22,1.07-1.44.93-3.45-.32-4.74-8.42-8.65-11.81-20.89-13.14-28.16,11.26,3.88,24.75,4.4,25.43,4.42,1.15.04,2.2-.46,2.9-1.27.52-.61.85-1.39.89-2.25.08-2.01-1.48-3.72-3.49-3.81-.4-.03-9.49-.82-15.31-13.45,7.97,3.42,19.16,14.89,25.93,23.78,1.15,1.51,3.27,1.89,4.88.88.31-.2.58-.43.81-.7.96-1.11,1.19-2.72.48-4.08-.27-.53-6.6-12.69-25.69-43.51,7.5.89,14.14,9.69,14.22,9.8,1.19,1.6,3.44,1.96,5.06.8.25-.17.46-.37.65-.59,1.06-1.23,1.21-3.05.26-4.45-.29-.42-6.25-9.07-21.45-20.24,9.05-2.23,19.9-7.66,25.84-14.53,3.24-3.74,4.84-7.66,4.75-11.63-.03-1.39-.84-2.64-2.1-3.23-1.26-.59-2.74-.42-3.83.44-5.62,4.43-11.25,6.08-17.23,5.05-9.39-1.62-17.39-9.56-21.87-14.98,7.15-.14,18.75.53,27.28,5.37,1.38.79,3.11.59,4.29-.48.11-.1.2-.2.3-.31.93-1.07,1.16-2.61.56-3.92-4.9-10.72-19.54-18.72-30.02-23.27,11.84-2.22,27.91-3.47,36.36,2.28,1.3.88,3.01.84,4.26-.1.21-.16.4-.34.57-.53.83-.96,1.12-2.29.71-3.53-8.58-26.36-34.45-31.85-50.11-32.67,3.15-2.54,6.62-5.67,9.73-9.27,6.47-7.48,9.72-14.98,9.64-22.28-.02-1.52-.97-2.88-2.4-3.4-1.43-.52-3.04-.11-4.03,1.04-4.54,5.24-15.07,7.64-25.61,8.58,5.37-2.33,10.82-5.29,15.41-8.98.17-.14.33-.29.47-.46.5-.58.81-1.3.88-2.07.09-.99-.23-1.98-.88-2.73-.97-1.12-2.36-2.02-4.07-2.74,6.33.41,13.18,1.32,20.5,2.93,1.32.29,2.68-.17,3.56-1.18.07-.08.13-.15.19-.24.86-1.17.94-2.74.21-4-12.3-21.22-46.5-26.35-63.66-27.59,3.76-3.22,8.31-7.46,12.37-12.15,7.66-8.86,11.22-16.71,10.57-23.34-.16-1.66-1.43-3-3.08-3.26-1.28-.2-2.53.28-3.34,1.22-.24.27-.44.59-.59.93-.76,1.75-1.9,3.5-3.37,5.2-17.18,19.86-72.99,27.24-73.55,27.31-.9.12-1.72.56-2.3,1.24Z"/>
          <path class="cls-15" d="m1119.63,179.8s49.25-.47,63.08,23.4c-39-8.59-63.41,4.28-63.41,4.28,0,0,39.14-6.45,45.51.91-12.63,10.15-33.66,13.93-33.66,13.93,0,0,36.83,3.26,47.33-8.88.19,17.41-24.77,31.69-24.77,31.69,0,0,41.93-5.53,52.45,26.77-14.2-9.65-45.5-.04-45.5-.04,0,0,28.57,8.87,34.99,22.91-12.9-7.32-32.28-4.86-32.28-4.86,0,0,20.32,32.47,43.27,14.38.28,12.7-26.36,22.99-33.7,20.73,19.09,12.25,26.08,22.57,26.08,22.57,0,0-10.07-13.65-20.78-9.32,19.3,30.96,25.5,42.96,25.5,42.96,0,0-19.25-25.28-30.84-23.38,5.62,18.8,18.57,19.39,18.57,19.39,0,0-16.93-.59-26.89-5.96,0,0,1.13,20.15,13.42,32.78,0,0-18.83-9.66-24.65-21.33,9.79,22.41,20.21,28.77,20.21,28.77,0,0-19.73-.02-26.16-11.46,6.43,18.93,22.43,28.8,25.5,46.71-16.87-21.9-32.99-28.55-32.99-28.55,0,0,8.44,19.38,19.69,27.06-4.84,6.36-30.27-11.78-30.27-11.78l-54.97-257s61.35-7.9,71.44-31.05c1.42,14.45-26.19,34.38-26.19,34.38Z"/>
        </g>
      </g>
      <g>
        <path class="cls-12" d="m478.51,762.66c.07-.08.15-.16.23-.24.69-.66,1.63-1,2.59-.94l274.25,17.66c.85.05,1.66.43,2.25,1.05.23.24,5.78,6.02,10.75,12.68,7.81,10.46,9.82,17.23,6.32,21.3-.09.1-.18.21-.28.31-.66.67-1.56,1.05-2.5,1.03-.94-.01-1.83-.41-2.47-1.1-4.47-4.84-11.83-8.66-18.07-11.27,5.3,5.47,13.67,12.67,25.84,19.48,1.38.77,2.05,2.38,1.63,3.9-.14.5-.38.96-.71,1.33-.65.76-1.63,1.22-2.68,1.19-11.02-.26-20.09-5.08-28.86-9.74-3.24-1.72-6.53-3.47-9.97-5.03,4.52,7.74,5.86,16.33,5.94,16.9.15,1.01-.16,2.01-.79,2.74-.32.37-.73.68-1.2.89-1.4.63-3.05.25-4.04-.94-.03-.04-2.19-2.49-7.49-5.72,3.46,3.88,5.68,6.95,5.9,7.26.93,1.29.83,3.04-.19,4.23-.06.07-.12.13-.18.19-1.19,1.19-3.07,1.33-4.43.35-9.15-6.61-20.96-8.08-27.87-8.32,5.13,9.9,7.45,22.32,7.57,22.94.19,1.06-.12,2.1-.78,2.86-.49.57-1.17.98-1.96,1.13-1.85.35-3.64-.86-4.01-2.71-.08-.36-2.06-8.67-14.55-12.34,4.25,6.91,16.41,15.71,25.57,20.77,1.56.86,2.2,2.77,1.48,4.39-.14.32-.32.6-.54.85-.89,1.04-2.36,1.47-3.71,1.01-.52-.18-12.65-4.37-43.8-17.85,1.84,6.82,10.9,11.77,11.01,11.83,1.64.88,2.28,2.92,1.44,4.58-.13.25-.28.48-.46.69-.99,1.15-2.66,1.54-4.08.85-.43-.21-9.25-4.55-21.68-17.1-.82,8.69-4.38,19.48-9.92,25.92-3.02,3.51-6.43,5.53-10.12,5.99-1.29.16-2.56-.42-3.28-1.5-.72-1.08-.77-2.48-.12-3.61,3.33-5.81,4.09-11.25,2.32-16.65-2.78-8.47-11.23-14.79-16.86-18.21.85,6.64,3.05,17.29,8.7,24.52.92,1.17.97,2.8.14,4.04-.07.11-.16.22-.24.32-.87,1.01-2.25,1.43-3.56,1.05-10.59-3.08-20-15.54-25.65-24.62-.44,11.27.6,26.32,7.07,33.36.99,1.08,1.19,2.67.49,3.96-.12.22-.26.42-.42.6-.77.9-1.97,1.35-3.17,1.14-25.58-4.35-34.2-27.55-37.09-41.94-1.92,3.27-4.35,6.9-7.25,10.27-6.04,7.02-12.54,11.04-19.31,11.97-1.41.19-2.8-.51-3.48-1.76-.68-1.25-.52-2.8.42-3.88,4.24-4.92,5.01-14.99,4.45-24.89-1.43,5.29-3.42,10.74-6.21,15.49-.11.18-.23.35-.36.5-.47.54-1.09.93-1.8,1.1-.91.22-1.86.06-2.65-.44-1.17-.74-2.19-1.91-3.09-3.4,1.24,5.8,3.02,12.03,5.51,18.59.45,1.18.21,2.51-.61,3.46-.06.07-.13.14-.19.21-.97.95-2.41,1.25-3.68.74-21.33-8.49-30.75-39.46-34.24-55.19-2.47,3.92-5.77,8.72-9.56,13.11-7.15,8.31-13.94,12.67-20.17,12.97-1.56.08-2.97-.91-3.44-2.4-.36-1.15-.08-2.38.68-3.26.22-.26.48-.49.78-.67,1.52-.95,2.98-2.23,4.36-3.83,16.04-18.62,15.26-71.31,15.25-71.84-.02-.85.28-1.67.83-2.3Z"/>
        <path class="cls-15" d="m505.16,800.5s6.17,44.79,29.7,54.15c-13.02-34.27-4.61-58.16-4.61-58.16,0,0-.62,36.41,6.92,41.21,7.53-12.83,8.14-32.43,8.14-32.43,0,0,7.89,33.01-1.72,44.17,15.84-2.16,25.46-26.74,25.46-26.74,0,0,.59,38.82,31.34,44.05-10.67-11.6-6.13-41.31-6.13-41.31,0,0,11.88,24.76,25.49,28.71-8.38-10.73-8.74-28.66-8.74-28.66,0,0,32.21,14.11,18.85,37.38,11.58-1.45,17.35-27.02,14.31-33.38,13.68,15.7,23.99,20.66,23.99,20.66,0,0-13.74-7.32-11.25-17.63,30.7,13.38,42.43,17.4,42.43,17.4,0,0-25.54-14.09-25.36-24.88,17.82,2.59,20.1,14.27,20.1,14.27,0,0-2.81-15.3-9.01-23.62,0,0,18.45-1.67,31.56,7.8,0,0-11.3-15.81-22.68-19.53,21.66,5.89,28.83,14.5,28.83,14.5,0,0-2.66-17.91-13.91-22.22,18.05,3.3,29.16,16.51,45.83,16.9-22.14-12.39-30.35-26.14-30.35-26.14,0,0,18.73,5.07,27.21,14.26,5.13-5.25-14.75-25.91-14.75-25.91l-240.77-15.5s1.05,56.78-18.63,69.04c13.31-.64,27.72-28.39,27.72-28.39Z"/>
      </g>
      <g>
        <g>
          <path class="cls-7" d="m1150.92,321.01c-2.15,19.4,21.5,41.65,19.36,61.07-2.15,19.4-30.08,35.97-32.22,55.37-2.14,19.4,21.51,41.65,19.36,61.07-2.14,19.4-30.07,35.97-32.22,55.37-2.14,19.4,21.51,41.65,19.37,61.07-2.15,19.4-30.08,35.97-32.22,55.37-2.15,19.4,21.5,41.65,19.36,61.07-2.15,19.4-30.08,35.95-32.22,55.37-.05.48-.1.98-.12,1.48-1.8,29.82-30.67,49.84-58.99,40.34-5.08-1.7-10.04-2.92-14.85-3.35-27.23-2.5-56.62,21.1-83.89,19.1-27.27-2-52.89-29.64-80.2-31.14-27.31-1.5-55.81,23.16-83.12,22.16-27.33-1.01-53.95-27.69-81.29-28.19-27.34-.5-54.92,25.19-82.26,25.19s-54.92-25.69-82.27-25.19c-27.33.5-53.95,27.19-81.28,28.19-27.32,1-55.83-23.67-83.12-22.16-27.31,1.5-52.92,29.15-80.2,31.14-27.27,2.01-56.66-21.59-83.89-19.1-4.81.44-9.78,1.66-14.85,3.35-28.31,9.5-57.19-10.52-58.98-40.34-.02-.5-.07-1-.12-1.48-2.14-19.41-30.07-35.97-32.22-55.37-2.14-19.41,21.51-41.67,19.36-61.07-2.14-19.4-30.07-35.97-32.22-55.37-2.14-19.41,21.51-41.67,19.37-61.07-2.15-19.4-30.08-35.97-32.22-55.37-2.15-19.41,21.5-41.67,19.36-61.07-2.14-19.4-30.07-35.97-32.22-55.37-2.14-19.41,21.51-41.67,19.36-61.07-2.14-19.4-30.07-35.97-32.22-55.37-2.14-19.4,21.51-41.67,19.37-61.07-.11-.96-.27-1.96-.47-2.97-6.12-29.98,20.22-56.33,50.34-52.05.13.01.27.03.42.07.19.01.38.04.57.08,8.87,1.45,17.45,2.18,25.44,1.45,3.43-.32,6.83-.93,10.22-1.79.15-.04.31-.08.47-.12,6.96-1.8,13.84-4.59,20.7-7.79,20.24-9.44,40.17-22.44,61.06-23.97,3.2-.23,6.42-.2,9.66.07h.02c.21.01.41.02.6.04,28.43,2.43,57.92,21.25,86.09,19.7,3.3-.19,6.6-.65,9.88-1.34.26-.04.53-.1.79-.16,9.45-2.06,18.82-5.93,28.18-10.18,18.16-8.23,36.26-17.9,54.78-18.57,1.38-.05,2.75-.05,4.13,0,.31,0,.62.01.94.02h.03c29.98,1.44,60.54,23.84,90.48,23.29,8.1-.14,16.17-1.97,24.25-4.61,21.82-7.13,43.58-20.19,65.46-21.98.7-.05,1.41-.11,2.12-.14.64-.03,1.28-.05,1.92-.07h.02c.3-.01.6-.01.9-.01.94,0,1.9.02,2.84.08.7.03,1.41.09,2.12.14,21.88,1.79,43.64,14.85,65.46,21.98,2.92.95,5.82,1.8,8.74,2.5,5.16,1.24,10.34,2.02,15.51,2.12,29.48.54,59.55-21.17,89.09-23.21.47-.03.93-.05,1.39-.09h.03c1.7-.07,3.39-.09,5.08-.02,22.33.81,44.07,14.71,66.04,23.4,5.72,2.27,11.46,4.19,17.22,5.42.16.04.32.08.48.1,3.28.69,6.58,1.15,9.88,1.34,27.57,1.52,56.41-16.48,84.28-19.52.6-.07,1.21-.13,1.81-.18,3.44-.31,6.87-.36,10.28-.11,23.62,1.74,46.03,18.13,69.01,27.46,4.04,1.66,8.1,3.07,12.18,4.15.35.1.69.19,1.03.27,3.39.86,6.79,1.47,10.22,1.79,7.52.69,15.57.08,23.89-1.21.52-.08,1.03-.15,1.56-.24.2-.03.38-.07.58-.08,30.28-4.58,56.88,21.87,50.74,51.98-.2,1.01-.36,2.01-.47,2.97-2.14,19.4,21.51,41.67,19.37,61.07-2.15,19.4-30.08,35.97-32.22,55.37Z"/>
          <path class="cls-16" d="m1128.52,311.93c-1.82,16.45,15.73,35.06,18.36,52.01.34,2.19.43,4.36.2,6.5-1.21,10.93-10.95,20.91-19.19,31.08-5.78,7.11-10.83,14.32-11.67,21.98-2.06,18.59,20.61,39.92,18.55,58.51-.25,2.23-.84,4.42-1.72,6.57-3.7,9.21-12.31,17.88-19.24,26.71-5.01,6.4-9.15,12.9-9.91,19.79-2.05,18.59,20.61,39.91,18.56,58.51-2.06,18.59-28.82,34.46-30.88,53.05-2.05,18.59,20.61,39.92,18.56,58.51-2.05,18.59-28.82,34.46-30.87,53.05-.05.47-.1.94-.12,1.42-1.72,28.57-29.39,47.76-56.52,38.65-4.87-1.63-9.62-2.78-14.24-3.21-26.09-2.4-54.25,20.22-80.38,18.31-26.13-1.92-50.69-28.41-76.84-29.85-26.17-1.44-53.48,22.2-79.66,21.23-26.19-.96-51.7-26.53-77.89-27.01-26.2-.48-52.63,24.14-78.83,24.14s-52.63-24.62-78.83-24.14c-26.2.48-51.71,26.05-77.89,27.01-26.18.96-53.49-22.67-79.66-21.23-26.15,1.44-50.71,27.93-76.84,29.85-26.13,1.92-54.29-20.71-80.38-18.31-4.61.43-9.37,1.58-14.24,3.21-26.59,8.92-53.69-9.33-56.38-36.95-.01-.02-.01-.05-.01-.08-.05-.54-.1-1.07-.13-1.62-.02-.48-.07-.95-.12-1.42-.04-.39-.1-.79-.16-1.18-.01-.01-.01-.02-.01-.03-3.04-18.08-28.69-33.65-30.69-51.84-.05-.52-.09-1.02-.11-1.53v-.02c-.22-5.59,1.64-11.43,4.29-17.35,1.24-2.77,2.64-5.56,4.08-8.35,5.46-10.64,11.4-21.34,10.3-31.25-.05-.44-.11-.87-.19-1.29,0-.01,0-.03-.01-.04-3.13-18.02-28.68-33.58-30.68-51.72-.05-.5-.09-1.01-.11-1.51v-.03c-.33-8.34,3.99-17.21,8.55-26.1,5.42-10.51,11.2-21.07,10.12-30.87-.04-.41-.1-.8-.16-1.19-3.03-18.1-28.7-33.67-30.7-51.87-.05-.49-.09-.98-.11-1.47-.68-15.92,15.54-33.7,18.37-50,.42-2.38.54-4.74.28-7.05-.04-.35-.09-.7-.14-1.05-2.92-18.14-28.72-33.76-30.73-52-.07-.57-.1-1.14-.11-1.71-.58-18.19,20.65-38.78,18.67-56.8-.04-.44-.11-.88-.19-1.3-3.12-18.04-28.68-33.6-30.69-51.76-.1-.91-.14-1.83-.13-2.76v-.15c.37-17.89,20.63-37.96,18.69-55.6-.07-.57-.14-1.14-.25-1.72-.05-.34-.12-.68-.19-1.03-.02-.13-.04-.27-.08-.41-.12-.6-.23-1.21-.32-1.81-3.16-20.74,9.76-39.31,28.19-45.77,6.58-2.31,13.87-3.08,21.38-1.85,5.06.83,10.04,1.41,14.85,1.59,3.26.14,6.43.09,9.51-.2,5.54-.52,10.99-1.84,16.41-3.69,22.34-7.6,43.95-24.01,66.58-27.89,1.86-.32,3.73-.55,5.6-.69,2.66-.2,5.34-.2,8.02-.04.26.02.54.04.81.07,23.39,1.67,47.55,15.25,71.04,18.4.18.02.35.04.53.07,3.33.43,6.66.64,9.96.56.66-.01,1.33-.03,1.98-.07,9.27-.52,18.43-3.32,27.55-7.02,19.73-7.97,39.28-20.05,59.29-21.81h.03c.94-.08,1.9-.14,2.84-.18.68-.02,1.37-.03,2.05-.03h.22c27.85.11,56.26,20.34,84.16,22.25.1.01.19.01.27.01,1.62.11,3.26.15,4.89.12,6.77-.12,13.54-1.47,20.29-3.5,21.82-6.54,43.58-20.1,65.46-21.98.7-.05,1.41-.11,2.12-.14.64-.03,1.28-.05,1.92-.07h.02c.3-.01.6-.01.9-.01.94,0,1.9.02,2.84.08.7.03,1.41.09,2.12.14,21.88,1.87,43.64,15.43,65.46,21.98,6.06,1.82,12.13,3.09,18.21,3.42h.07c.67.04,1.35.07,2.02.08,29.17.54,58.96-21.68,88.18-22.37.08-.01.15-.01.23,0,1.06-.02,2.13-.02,3.19.02.94.03,1.9.1,2.84.18h.03c23.86,2.1,47.07,18.88,70.7,25.86,5.18,1.55,10.38,2.61,15.62,2.94.18.01.34.02.52.03.66.03,1.33.05,1.98.07,28.02.58,57.33-18.85,85.4-19.19,1.66-.02,3.31.02,4.97.14,1.87.14,3.74.37,5.6.69,25.68,4.41,50.04,24.93,75.65,30.44,2.43.53,4.89.91,7.34,1.14.39.03.79.07,1.19.09,2.71.21,5.48.23,8.32.11,4.81-.18,9.79-.76,14.85-1.59,2.44-.39,4.87-.59,7.25-.58,4.93.01,9.7.88,14.14,2.43,14.96,5.25,26.3,18.48,28.33,34.39.55,4.33.42,8.87-.53,13.49-.2.98-.34,1.92-.45,2.85-.32,2.9-.03,5.86.66,8.88,3.76,16.31,19.63,33.95,17.9,49.63-2.06,18.6-28.82,34.46-30.88,53.07Z"/>
          <path class="cls-23" d="m1125.04,311.24c-1.75,15.99,14.81,34.01,18.08,50.57.15.79.29,1.58.36,2.36.03.25.05.5.08.76.04.37.07.75.09,1.13.01.35.02.69.02,1.04,0,.83-.04,1.66-.13,2.48-.04.35-.09.69-.14,1.04-.04.27-.09.54-.14.81-.04.24-.1.49-.16.73-.04.22-.1.43-.15.65-.07.23-.12.46-.2.69-.38,1.33-.88,2.64-1.47,3.95-.1.21-.2.43-.31.64-.58,1.23-1.25,2.44-1.98,3.65-.2.33-.41.66-.61.99-.76,1.21-1.59,2.4-2.46,3.6-.31.43-.61.84-.94,1.27-3.43,4.56-7.42,9.05-11.07,13.59-1.04,1.28-2.05,2.58-3.01,3.88-.25.35-.5.69-.76,1.03-1.47,2.05-2.81,4.11-3.94,6.19-.15.27-.3.55-.43.82-.15.27-.28.56-.42.83-.41.83-.77,1.68-1.09,2.52-.11.3-.22.59-.32.89-.1.27-.19.55-.26.81-.09.28-.18.57-.25.85-.08.28-.15.57-.21.85-.07.27-.13.55-.18.82-.12.59-.21,1.17-.27,1.76-2.04,18.54,20.54,39.79,18.49,58.32-.1.87-.24,1.73-.45,2.59-.04.22-.1.44-.15.65-.05.21-.11.43-.18.64-.38,1.35-.89,2.67-1.49,3.99-.15.34-.32.68-.48,1.02-.12.25-.25.5-.38.76-.46.88-.95,1.75-1.49,2.63-.24.41-.5.81-.76,1.22-2.17,3.38-4.81,6.71-7.55,10.02-.36.45-.73.89-1.1,1.33-.7.84-1.41,1.69-2.12,2.53-.35.43-.71.86-1.06,1.28-.07.07-.12.14-.19.22-.41.49-.82,1-1.23,1.49-.03.03-.07.08-.1.12-.44.54-.87,1.06-1.29,1.6-.01,0-.01.01-.01.01-.43.54-.85,1.07-1.27,1.62-.02.03-.04.05-.07.09-.44.57-.88,1.15-1.3,1.72h-.01c-1.36,1.83-2.62,3.68-3.73,5.55-.37.64-.73,1.28-1.07,1.92-.28.52-.55,1.05-.8,1.58-.1.22-.2.44-.3.66-.26.56-.49,1.12-.7,1.69-.11.27-.21.54-.3.81-.01.02-.02.05-.03.09-.09.26-.18.53-.25.79-.18.57-.33,1.14-.46,1.71-.07.23-.11.46-.15.7-.05.26-.1.53-.14.79-.07.36-.11.72-.15,1.1-1.93,17.53,18.15,37.49,18.61,55.27.03,1.02-.01,2.04-.12,3.05-.9,8.13-6.54,15.75-12.77,23.32-7.96,9.64-16.85,19.18-18,29.57-2.04,18.54,20.54,39.78,18.49,58.32-2.04,18.54-28.72,34.35-30.77,52.89-.04.46-.09.93-.12,1.4-1.71,28.48-29.28,47.62-56.32,38.54-4.84-1.63-9.59-2.78-14.18-3.21-26.01-2.39-54.09,20.16-80.12,18.25-26.06-1.92-50.52-28.33-76.6-29.75-26.08-1.44-53.3,22.12-79.4,21.16-26.1-.95-51.52-26.44-77.63-26.92-26.11-.47-52.45,24.06-78.57,24.06s-52.45-24.53-78.56-24.06c-26.11.48-51.53,25.97-77.63,26.92-26.1.96-53.32-22.59-79.4-21.16-26.08,1.43-50.56,27.83-76.6,29.75-26.03,1.91-54.11-20.64-80.12-18.25-4.59.43-9.34,1.58-14.18,3.21-5.03,1.69-10.08,2.4-15,2.26-.27,0-.54-.01-.81-.03-1.05-.05-2.1-.14-3.15-.26-.64-.09-1.26-.18-1.89-.28-.33-.05-.66-.12-.99-.19-.2-.04-.39-.08-.59-.12-.29-.05-.56-.12-.84-.19-.49-.12-1-.24-1.49-.37-.26-.07-.52-.14-.77-.22-.45-.13-.91-.27-1.37-.43-.3-.1-.59-.2-.89-.31-.3-.1-.59-.21-.89-.32-.58-.22-1.15-.45-1.72-.7-2.01-.87-3.96-1.9-5.81-3.06-.22-.13-.44-.27-.66-.42-3.19-2.09-6.11-4.62-8.66-7.49-.39-.45-.79-.92-1.17-1.39-.2-.24-.41-.49-.59-.75-.2-.25-.38-.5-.57-.76-.2-.25-.38-.52-.56-.77-.18-.24-.34-.49-.52-.73-.55-.81-1.06-1.63-1.56-2.48-.15-.27-.32-.55-.47-.83-.15-.27-.31-.56-.45-.84-.15-.28-.3-.57-.44-.87-.3-.58-.57-1.16-.82-1.75-.39-.89-.76-1.79-1.1-2.71h0c-.56-1.55-1.03-3.14-1.43-4.77-.08-.33-.15-.65-.22-.98-.14-.66-.26-1.33-.38-2-.04-.31-.1-.61-.14-.93-.01-.02-.01-.05-.01-.08-.08-.53-.15-1.06-.21-1.6-.02-.18-.04-.35-.05-.53-.05-.56-.1-1.11-.13-1.67-.01-.15-.02-.32-.03-.47-.02-.32-.05-.62-.09-.93-.16-1.45-.47-2.88-.91-4.3-.16-.55-.35-1.1-.56-1.64-.65-1.71-1.47-3.4-2.41-5.06-.3-.52-.59-1.03-.91-1.55-.03-.03-.04-.07-.07-.1-.32-.52-.65-1.03-.99-1.53-1.62-2.44-3.46-4.84-5.4-7.26-.21-.26-.43-.53-.65-.8-.22-.26-.44-.53-.66-.8-.26-.33-.54-.66-.81-.99-2.24-2.69-4.52-5.37-6.66-8.07-.22-.26-.43-.54-.64-.8-1.49-1.89-2.9-3.78-4.18-5.7-.19-.26-.36-.54-.54-.81-.12-.18-.22-.34-.32-.5-.14-.22-.28-.45-.43-.68-.1-.15-.19-.31-.27-.47-.16-.27-.33-.55-.48-.82-1.03-1.81-1.91-3.64-2.58-5.49-.1-.27-.19-.54-.27-.81-.37-1.14-.67-2.29-.87-3.44-.04-.24-.08-.49-.11-.73,0-.02-.01-.05-.01-.08v-.02c-.02-.14-.04-.28-.05-.43-.59-5.4.9-11.04,3.28-16.76,1.13-2.74,2.46-5.5,3.86-8.27,3.46-6.85,7.32-13.75,9.57-20.47.11-.32.21-.64.31-.95,0,0,.01-.01.01-.02.25-.83.48-1.66.68-2.48.07-.24.13-.48.18-.72.62-2.77.89-5.51.65-8.2,0-.15-.01-.3-.03-.45-.07-.58-.15-1.16-.26-1.73-.11-.57-.24-1.14-.39-1.71-.08-.28-.16-.57-.25-.85-.21-.68-.45-1.37-.72-2.05-.16-.44-.35-.88-.55-1.32-.52-1.16-1.11-2.31-1.76-3.46-.13-.24-.27-.47-.42-.7-.15-.26-.32-.53-.48-.8-.15-.25-.32-.5-.47-.76-3.87-6.03-9.22-11.9-14.01-17.83-.35-.44-.7-.87-1.04-1.29-3.31-4.18-6.28-8.39-8.21-12.7-.12-.29-.24-.56-.36-.84-.46-1.09-.83-2.18-1.14-3.29-.05-.18-.1-.36-.14-.55-.18-.67-.31-1.34-.42-2.02-.03-.21-.07-.43-.09-.64l-.03-.23v-.03s-.01-.05-.01-.08c-.92-8.37,3.19-17.31,7.78-26.3,5.51-10.81,11.73-21.7,10.73-31.79-.01-.08-.01-.15-.02-.23-2.04-18.54-28.72-34.35-30.77-52.89-.01-.08-.01-.14-.02-.22-1.57-15.83,14.63-33.63,18.03-50.02.57-2.74.78-5.44.48-8.08-.67-6.09-3.99-11.88-8.23-17.57-8.67-11.64-21.16-22.87-22.54-35.31-.03-.27-.05-.56-.07-.83-1.3-18.34,20.58-39.23,18.56-57.49-.02-.21-.04-.41-.08-.61-2.55-18.27-28.66-33.94-30.69-52.27-.08-.75-.12-1.5-.13-2.26v-.15c0-17.96,20.58-38.18,18.62-55.92-.05-.46-.11-.93-.19-1.4-.05-.34-.12-.68-.19-1.03-.02-.13-.04-.27-.08-.41-.12-.6-.23-1.21-.32-1.81-3.31-20.7,9.46-39.26,27.78-45.83,6.63-2.37,13.99-3.17,21.57-1.93,5.32.87,10.51,1.47,15.54,1.61,2.98.1,5.9.03,8.74-.23,5.56-.52,11.05-1.85,16.5-3.73h.01c22.2-7.6,43.67-23.86,66.16-27.74h.02c1.86-.32,3.73-.55,5.6-.69,2.86-.21,5.73-.2,8.63,0,.26.02.54.04.81.07,23.41,1.87,47.57,15.52,71.04,18.4.18.02.35.04.53.07,3.61.42,7.19.58,10.75.39.1,0,.2-.01.3-.01,9.55-.52,18.97-3.5,28.37-7.36,19.44-7.98,38.69-19.74,58.43-21.39.88-.08,1.74-.13,2.62-.16,1.09-.04,2.16-.04,3.24-.02h.22c27.88.68,56.29,21.02,84.16,22.25.1.01.19.01.27.01,1.13.05,2.26.07,3.39.04,30.21-.56,60.2-25.62,90.41-25.62.3,0,.58,0,.88.01h.02c26.76.43,53.33,20.14,80.05,24.69,3.16.54,6.31.87,9.47.92h.07c29.84.5,60.34-22.86,90.19-22.3.08-.01.15-.01.23,0,.26,0,.54,0,.8.01,1.28.04,2.55.14,3.84.27,24.28,2.53,47.89,20.01,72.02,26.38,4.49,1.19,9.02,2,13.56,2.25.72.03,1.45.07,2.17.08.67.01,1.35.01,2.02,0,28.25-.45,57.74-20.17,85.89-19.1.66.01,1.32.05,1.97.1,2.27.16,4.54.47,6.79.91,26.1,4.98,50.85,26.21,77,30.65,1.5.26,3,.46,4.52.6,1.47.13,2.97.22,4.48.24,2.38.07,4.81.01,7.29-.16,4.08-.24,8.27-.77,12.52-1.46,3.61-.59,7.16-.72,10.61-.44,4.19.34,8.22,1.29,12,2.75,14.45,5.6,25.22,18.74,27,34.38.48,4.14.32,8.47-.58,12.88-.2.96-.35,1.92-.46,2.84-.33,3.01-.01,6.09.75,9.23,3.9,16.15,19.47,33.58,17.75,49.1-2.04,18.54-28.72,34.34-30.77,52.88Z"/>
          <path class="cls-14" d="m1112.76,422.45c-2.04,18.54,20.54,39.79,18.49,58.32-2.04,18.54-28.72,34.35-30.77,52.89-1.93,17.53,18.15,37.49,18.61,55.27.03,1.02-.01,2.04-.12,3.05-.9,8.13-6.54,15.75-12.77,23.32-7.96,9.64-16.85,19.18-18,29.57-2.04,18.54,20.54,39.78,18.49,58.32-2.04,18.54-28.72,34.35-30.77,52.89-.04.46-.09.93-.12,1.4-1.71,28.48-29.28,47.62-56.32,38.54-4.84-1.63-9.59-2.78-14.18-3.21-26.01-2.39-54.09,20.16-80.12,18.25-26.06-1.92-50.52-28.33-76.6-29.75-26.08-1.44-53.3,22.12-79.4,21.16-26.1-.95-51.52-26.44-77.63-26.92-26.11-.47-52.45,24.06-78.57,24.06s-52.45-24.53-78.56-24.06c-26.11.48-51.53,25.97-77.63,26.92-26.1.96-53.32-22.59-79.4-21.16-26.08,1.43-50.56,27.83-76.6,29.75-26.03,1.91-54.11-20.64-80.12-18.25-4.59.43-9.34,1.58-14.18,3.21-27.04,9.08-54.62-10.06-56.33-38.54-.02-.47-.07-.94-.12-1.4-2.04-18.54-28.72-34.35-30.77-52.89-.59-5.4.9-11.04,3.28-16.76,1.13-2.74,2.46-5.5,3.86-8.27,5.71-11.31,12.52-22.73,11.36-33.29-2.04-18.54-28.72-34.35-30.77-52.89-.92-8.37,3.19-17.31,7.78-26.3,86.27,30.58,200.07,111.26,436.15,100.32,265.28-12.29,243.81-170.72,592.19-304.19.52,2.63.7,5.22.42,7.76-2.04,18.53-28.72,34.34-30.77,52.88Z"/>
          <path class="cls-17" d="m1147.08,370.44c-1.21,10.93-10.95,20.91-19.19,31.08-76.9-6.57-167.73-16.75-222.05-31.15-3.37-.9-2.55-5.86.92-5.67,93.2,5.4,176.22,3.31,240.13-.76.34,2.19.43,4.36.2,6.5Z"/>
          <path class="cls-9" d="m1119.1,588.92c.03,1.02-.01,2.04-.12,3.05-.9,8.13-6.54,15.75-12.77,23.32-107.55.96-408.65,3.46-479.13,2.08-134.69-2.63-366.9,47.85-504.53,69.05,1.13-2.74,2.46-5.5,3.86-8.27,101.6-20.05,380.79-72.33,547.12-76.15,182.07-4.19,385.25-11.01,445.57-13.08Z"/>
          <path class="cls-8" d="m361.79,719.27s168.9,14.54,314.34,6.5c-73.99,22.01-233.07,20.6-314.34-6.5Z"/>
          <path class="cls-25" d="m342.46,424.95c-38.95,18.5-167.98,10.63-229.74,5.58.57-2.74.78-5.44.48-8.08-.67-6.09-3.99-11.88-8.23-17.57,36.4,8.56,140.51,29.93,237.49,20.07Z"/>
          <path class="cls-26" d="m1133.04,488.58c-3.7,9.21-12.31,17.88-19.24,26.71-106.16,20.65-412.71,41.86-492.98,17.23-86.43-26.52-407.71-21.5-407.71-21.5,0,0,197.56-21.85,432.32,12.45,224.18,32.75,305.35-33.84,487.61-34.9Z"/>
          <path class="cls-5" d="m181.23,275.02s137.99-48.19,394.72,0c162.48,30.5,218.78,14.59,218.78,14.59,0,0-165.04,17.83-254.37-7.04-89.33-24.87-359.14-7.55-359.14-7.55Z"/>
          <path class="cls-3" d="m1141.5,209.23c-44.53.34-337.99,1.4-473.45-29.21,137.67,29.28,377.72,12.47,473.77,3.99.55,4.33.42,8.87-.53,13.49-.2.98-.34,1.92-.45,2.85-.32,2.9-.03,5.86.66,8.88Z"/>
        </g>
        <g>
          <path class="cls-10" d="m375.32,241.07l-93.76,15.95-93.44,15.88-14.62,2.49c-11.63,1.98-20.26-10.53-14.28-20.71l43.28-73.6c3.43-5.82,2.16-13.26-2.99-17.63l-21.28-18-.21-.19h-.01l-4.54-3.84c20.24-9.44,40.17-22.44,61.06-23.97,3.2-.23,6.42-.2,9.66.07h.02c1.86-.32,3.73-.55,5.6-.69,2.86-.21,5.73-.2,8.63,0,.26.02.54.04.81.07,23.39,1.67,47.55,15.25,71.04,18.4.18.02.35.04.53.07,3.61.42,7.19.58,10.75.39,9.45-2.06,18.82-5.93,28.18-10.18l.48,2.82.08.45,16.35,96.21c1.29,7.55-3.79,14.72-11.35,16Z"/>
          <path class="cls-2" d="m1068.15,275.4l-201.82-34.32c-7.55-1.28-12.64-8.45-11.35-16l3.86-22.67,1.01-5.94,10.7-62.94.11-.61.42-2.48c5.72,2.27,11.46,4.19,17.22,5.42,28.25-.45,57.74-20.17,85.89-19.1,1.66-.02,3.31.02,4.97.14,1.87.14,3.74.37,5.6.69,3.44-.31,6.87-.36,10.28-.11,23.62,1.74,46.03,18.13,69.01,27.46l-3.65,3.09-.46.38-17.79,15.06c-5.15,4.36-6.42,11.81-2.99,17.63l5.93,10.08,10.47,17.81,26.88,45.7c5.97,10.17-2.65,22.69-14.28,20.71Z"/>
          <path class="cls-4" d="m388.31,225.46l-191.14,32.51c-11.01,1.87-19.19-9.98-13.53-19.61l40.99-69.71c3.24-5.51,2.04-12.56-2.84-16.69l-61.73-52.24c-8.53-7.22-4.73-21.11,6.28-22.98l191.14-32.51c7.15-1.22,13.94,3.6,15.16,10.75l26.42,155.33c1.22,7.15-3.6,13.94-10.75,15.16Z"/>
          <path class="cls-24" d="m385.97,211.71l-162.34,27.61c-11.01,1.87-19.31-10.69-13.73-20.79l32.96-59.59c3.2-5.78,1.93-13.21-3-17.61l-50.81-45.34c-8.61-7.68-4.93-22.28,6.08-24.16l162.34-27.61c7.15-1.22,13.99,3.92,15.28,11.46l23.84,140.14c1.28,7.55-3.47,14.65-10.63,15.87Z"/>
          <path class="cls-13" d="m395.58,199.17c-1.4,4.51-5.03,8-9.72,8.79l-155.81,26.5c-10.55,1.81-18.57-10.51-13.23-20.36l31.46-58.14c3.06-5.64,1.81-12.91-2.92-17.24l-48.95-44.48c-8.27-7.52-4.8-21.79,5.78-23.58l35.9-6.12,119.91-20.41c6.86-1.16,13.45,3.87,14.7,11.26l23.33,137.1c.38,2.33.2,4.62-.45,6.68Z"/>
          <g class="cls-19">
            <path class="cls-15" d="m395.58,199.17c-36.81,3.35-73.5,8.27-109.99,14.7-10.22,1.79-19.95-4.96-21.9-15.13-8.54-44.73-17.06-89.47-25.59-134.2l119.91-20.41c6.86-1.16,13.45,3.87,14.7,11.26l23.33,137.1c.38,2.33.2,4.62-.45,6.68Z"/>
          </g>
          <path class="cls-21" d="m853.35,225.46l191.14,32.51c11.01,1.87,19.19-9.98,13.53-19.61l-40.99-69.71c-3.24-5.51-2.04-12.56,2.84-16.69l61.73-52.24c8.53-7.22,4.73-21.11-6.28-22.98l-191.14-32.51c-7.15-1.22-13.94,3.6-15.16,10.75l-26.42,155.33c-1.22,7.15,3.6,13.94,10.75,15.16Z"/>
          <path class="cls-24" d="m855.69,211.71l162.34,27.61c11.01,1.87,19.31-10.69,13.73-20.79l-32.96-59.59c-3.2-5.78-1.93-13.21,3-17.61l50.81-45.34c8.61-7.68,4.93-22.28-6.08-24.16l-162.34-27.61c-7.15-1.22-13.99,3.92-15.28,11.46l-23.84,140.14c-1.28,7.55,3.47,14.65,10.63,15.87Z"/>
          <path class="cls-13" d="m846.07,199.17c1.4,4.51,5.03,8,9.72,8.79l155.81,26.5c10.55,1.81,18.57-10.51,13.23-20.36l-31.46-58.14c-3.06-5.64-1.81-12.91,2.92-17.24l48.95-44.48c8.27-7.52,4.8-21.79-5.78-23.58l-35.9-6.12-119.91-20.41c-6.86-1.16-13.45,3.87-14.7,11.26l-23.33,137.1c-.38,2.33-.2,4.62.45,6.68Z"/>
          <g class="cls-19">
            <path class="cls-15" d="m846.07,199.17c36.81,3.35,73.5,8.27,109.99,14.7,10.22,1.79,19.95-4.96,21.9-15.13,8.54-44.73,17.06-89.47,25.59-134.2l-119.91-20.41c-6.86-1.16-13.45,3.87-14.7,11.26l-23.33,137.1c-.38,2.33-.2,4.62.45,6.68Z"/>
          </g>
          <path class="cls-6" d="m937.89,181.58c-209.88-35.22-424.25-35.22-634.13,0-11.22,1.88-22.19-7.87-24.53-21.98-5.45-33.08-10.94-66.49-16.5-100.22-2.42-14.59,5.38-28.27,17.47-30.34,225.43-38.71,455.82-38.71,681.25,0,12.08,2.07,19.89,15.75,17.47,30.34-5.55,33.74-11.05,67.15-16.5,100.22-2.34,14.11-13.31,23.86-24.53,21.98Z"/>
          <path class="cls-24" d="m972.26,56.49c-1.09,6.37-2.16,12.73-3.23,19.06-4.36,25.64-8.68,51.06-12.96,76.29-2.3,13.43-13.07,22.7-24.08,20.91-205.97-33.51-416.36-33.51-622.33,0-11.02,1.79-21.78-7.49-24.08-20.91-3.03-17.81-6.06-35.74-9.12-53.76-2.35-13.8-4.7-27.67-7.07-41.6-2.37-13.88,5.28-26.89,17.14-28.86,221.24-36.83,447.35-36.83,668.59,0,11.85,1.97,19.51,14.98,17.14,28.86Z"/>
          <path class="cls-11" d="m932,165.48c-205.98-32.09-416.36-32.09-622.34,0-11.01,1.71-21.78-7.17-24.07-20.03-5.34-30.15-10.74-60.59-16.19-91.34-2.38-13.29,5.28-25.76,17.14-27.65,221.24-35.28,447.34-35.28,668.58,0,11.86,1.89,19.52,14.36,17.15,27.65-5.45,30.75-10.85,61.19-16.19,91.34-2.3,12.86-13.06,21.74-24.07,20.03Z"/>
          <g class="cls-19">
            <path class="cls-15" d="m969.03,75.55c-4.36,25.64-8.68,51.06-12.96,76.29-2.3,13.43-13.07,22.7-24.08,20.91-205.97-33.51-416.36-33.51-622.33,0-11.02,1.79-21.78-7.49-24.08-20.91-3.03-17.81-6.06-35.74-9.12-53.76,100.19-55.44,266.14,7.14,459.56,19.06,139.82,8.62,203.71-15.84,233.01-41.6Z"/>
          </g>
        </g>
      </g>
    </g>
  </g>
</svg>